<?xml version="1.0" encoding="UTF-8" standalone="no"?>
<svg width="523px" height="523px" viewBox="0 0 523 523" version="1.1" xmlns="http://www.w3.org/2000/svg" xmlns:xlink="http://www.w3.org/1999/xlink" xmlns:sketch="http://www.bohemiancoding.com/sketch/ns">
    <!-- Generator: Sketch 3.4.1 (15681) - http://www.bohemiancoding.com/sketch -->
    <title>Untitled</title>
    <desc>Created with Sketch.</desc>
    <defs>
        <linearGradient x1="110.700576%" y1="-34.8698417%" x2="0%" y2="115.912158%" id="linearGradient-1">
            <stop stop-color="#074A39" offset="0%"></stop>
            <stop stop-color="#10785C" offset="24.0648013%"></stop>
            <stop stop-color="#1CB48A" offset="100%"></stop>
        </linearGradient>
    </defs>
    <g id="Page-1" stroke="none" stroke-width="1" fill="none" fill-rule="evenodd" sketch:type="MSPage">
        <circle id="Oval-1" stroke="#979797" fill="url(#linearGradient-1)" sketch:type="MSShapeGroup" cx="261.5" cy="261.5" r="260.5"></circle>
        <g id="shortlist" sketch:type="MSLayerGroup" transform="translate(174.000000, 142.000000)" fill="#FFFFFF">
            <g id="Group" transform="translate(0.000000, 0.992188)" sketch:type="MSShapeGroup">
                <path d="M137.499979,4.16333867e-14 L37.5000209,4.16333867e-14 C16.8249117,4.16333867e-14 1.42108547e-14,16.8249117 1.42108547e-14,37.5000209 L1.42108547e-14,212.500021 C1.42108547e-14,218.925122 1.29990307,224.325125 3.84990449,228.562628 C10.8999084,240.250036 26.5374172,241.162635 39.0123265,228.66253 L78.6624462,189.01241 C83.3499489,184.337505 91.6500511,184.337505 96.3375538,189.01241 L135.987674,228.66253 C142.125079,234.799936 148.512681,237.912437 154.987586,237.912437 C164.949994,237.912437 175,230.050031 175,212.500021 L175,37.5000209 C175,16.8249117 158.175088,0 137.499979,0 L137.499979,4.16333867e-14 Z M37.5000209,25.0002093 L137.499979,25.0002093 C144.387385,25.0002093 150.000084,30.6126147 150.000084,37.5003139 L150.000084,161.312785 L119.362567,133.22527 C101.787654,117.112858 73.2000408,117.125163 55.6251287,133.22527 L25.0002093,161.312785 L25.0002093,37.5003139 C25.0002093,30.6129077 30.6126147,25.0002093 37.5003139,25.0002093 L37.5000209,25.0002093 Z M114.012661,171.337596 C106.95006,164.274994 97.5375544,160.38759 87.5001465,160.38759 C77.4627385,160.38759 68.0502333,164.287592 60.9876317,171.337596 L25.0002093,207.325018 L25.0002093,178.275099 L64.0752311,142.449982 C76.9878359,130.612573 98.0001523,130.612573 110.912757,142.449982 L150.000377,178.275099 L150.000377,207.325018 L114.012954,171.337596 L114.012661,171.337596 Z" id="Shape"></path>
            </g>
        </g>
    </g>
</svg>