<?xml version="1.0" encoding="UTF-8" standalone="no"?>
<!DOCTYPE svg PUBLIC "-//W3C//DTD SVG 1.1//EN" "http://www.w3.org/Graphics/SVG/1.1/DTD/svg11.dtd">
<svg width="100%" height="100%" viewBox="0 0 1823 500" version="1.1" xmlns="http://www.w3.org/2000/svg" xmlns:xlink="http://www.w3.org/1999/xlink" xml:space="preserve" xmlns:serif="http://www.serif.com/" style="fill-rule:evenodd;clip-rule:evenodd;stroke-linejoin:round;stroke-miterlimit:1.41421;">
    <path d="M477.842,0L477.842,500L0,500L0,0L477.842,0ZM403.489,107.212L402.523,107.212C390.906,68.974 245.211,68.49 238.922,68.49C232.627,68.49 86.455,68.974 75.319,107.212L74.351,107.212L74.351,397.628L78.224,400.532C80.161,401.983 122.754,431.51 238.922,431.51C355.087,431.51 397.681,401.984 399.616,400.532L403.489,397.628L403.489,107.212ZM251.506,412.148L303.299,360.358C307.653,359.876 312.01,359.39 315.881,358.422L263.123,411.665C259.252,411.663 255.378,412.148 251.506,412.148ZM231.177,411.666L220.529,411.666L269.414,362.778C273.287,362.778 277.16,362.293 281.033,362.293L231.177,411.666ZM188.581,409.729L235.05,363.264L248.602,363.264L201.168,410.698C196.812,410.697 192.455,410.212 188.581,409.729ZM342.988,352.13C350.732,349.709 357.508,347.289 363.799,344.87L301.36,406.824C300.878,407.309 300.393,408.275 299.907,408.761C295.069,409.244 289.745,409.729 284.421,410.212L342.988,352.13ZM204.073,362.778C207.46,362.778 210.848,363.263 214.72,363.263L171.158,406.824C170.674,407.309 170.674,407.309 170.674,407.793C167.286,407.31 163.899,406.824 160.992,406.34L204.073,362.778ZM323.625,405.856L384.129,344.87L384.129,358.421L340.086,402.469C334.76,403.438 329.436,404.405 323.625,405.856ZM131.951,401.016L173.095,359.872C176.966,360.356 180.838,360.842 185.194,361.325L143.083,403.434C139.211,402.469 135.338,401.5 131.951,401.016ZM104.362,392.304L142.115,354.553C145.988,355.518 150.344,356.487 155.184,357.454L115.98,396.66C111.622,394.724 107.749,393.272 104.362,392.304ZM369.125,393.755L384.129,378.75L384.129,386.979C381.225,388.917 375.9,391.336 369.125,393.755ZM93.714,369.07L116.945,345.836C119.852,347.289 123.239,348.258 126.627,349.709L93.714,382.623L93.714,369.07ZM93.714,333.255C96.615,335.189 99.522,337.609 102.91,339.547L93.714,348.743L93.714,333.255ZM330.889,271.299C305.23,285.335 275.225,296.467 246.18,291.143L246.18,220.96C246.18,218.541 248.602,216.12 251.022,216.12L326.045,216.12C328.467,216.12 330.887,218.541 330.887,220.96L330.887,271.299L330.889,271.299ZM226.819,285.335C221.012,282.431 214.72,278.56 209.396,273.718L226.819,256.293L226.819,285.335ZM214.235,241.288L195.359,260.166C161.478,226.767 134.857,219.023 116.463,219.507L154.218,181.754C155.669,180.301 157.12,180.301 157.606,180.301C158.574,180.301 160.027,180.301 160.993,181.754L214.236,234.996C216.172,235.964 216.172,239.352 214.235,241.288ZM251.022,196.758C238.437,196.759 227.79,206.923 226.82,219.507L175.03,167.716C170.674,163.361 164.383,160.457 158.09,160.457C151.796,160.457 145.507,162.877 141.149,167.716L93.715,214.667L93.715,134.803C136.31,155.616 233.599,155.616 238.923,155.616C244.246,155.616 341.537,155.132 384.129,134.803L384.129,233.06C377.838,238.868 365.736,249.033 350.248,259.682L350.248,220.959C350.248,207.407 339.6,196.758 326.045,196.758L251.022,196.758ZM238.923,87.852C326.045,87.852 377.352,102.856 383.647,112.053C377.352,121.249 325.563,136.254 238.923,136.254C152.281,136.254 100.488,121.25 94.199,112.053C100.488,102.856 151.795,87.852 238.923,87.852Z"/>
    <g>
        <path d="M627.427,91.056L627.427,224.344L600.815,224.344L600.815,91.056L553.002,91.056L553.002,66.699L675.239,66.699L675.239,91.056L627.427,91.056Z" style="fill-rule:nonzero;"/>
        <path d="M824.988,202.58C809.05,218.142 789.354,225.922 765.9,225.922C742.445,225.922 722.746,218.141 706.811,202.58C690.873,187.018 682.905,167.623 682.905,144.393C682.905,121.163 690.873,101.768 706.811,86.206C722.746,70.644 742.445,62.864 765.9,62.864C789.354,62.864 809.049,70.645 824.988,86.206C840.924,101.768 848.894,121.163 848.894,144.393C848.894,167.623 840.924,187.019 824.988,202.58ZM805.48,103.911C794.728,92.786 781.535,87.222 765.9,87.222C750.26,87.222 737.067,92.786 726.319,103.911C715.568,115.039 710.194,128.533 710.194,144.393C710.194,160.258 715.568,173.751 726.319,184.875C737.067,196.003 750.26,201.564 765.9,201.564C781.535,201.564 794.728,196.003 805.48,184.875C816.228,173.75 821.605,160.257 821.605,144.393C821.605,128.533 816.229,115.04 805.48,103.911Z" style="fill-rule:nonzero;"/>
        <path d="M982.182,80.456C993.156,89.629 998.646,103.763 998.646,122.855C998.646,141.951 993.042,155.934 981.843,164.804C970.641,173.677 953.462,178.11 930.31,178.11L902.344,178.11L902.344,224.343L875.732,224.343L875.732,66.699L929.859,66.699C953.765,66.699 971.204,71.287 982.182,80.456ZM963.35,145.521C968.685,139.883 971.357,131.616 971.357,120.713C971.357,109.814 967.974,102.107 961.208,97.596C954.442,93.085 943.843,90.83 929.408,90.83L902.345,90.83L902.345,153.978L933.242,153.978C947.975,153.979 958.011,151.16 963.35,145.521Z" style="fill-rule:nonzero;"/>
        <path d="M1125.95,87.448C1118.2,87.448 1111.86,89.027 1106.89,92.184C1101.93,95.342 1099.45,100.117 1099.45,106.505C1099.45,112.897 1101.93,117.781 1106.89,121.164C1111.86,124.547 1122.41,128.194 1138.58,132.102C1154.74,136.013 1166.92,141.5 1175.12,148.565C1183.31,155.634 1187.41,166.044 1187.41,179.801C1187.41,193.558 1182.22,204.722 1171.85,213.292C1161.47,221.862 1147.86,226.147 1131.03,226.147C1106.37,226.147 1084.49,217.654 1065.4,200.662L1082.08,180.59C1098.02,194.424 1114.56,201.339 1131.7,201.339C1140.27,201.339 1147.07,199.5 1152.11,195.814C1157.15,192.131 1159.67,187.244 1159.67,181.154C1159.67,175.064 1157.3,170.329 1152.56,166.946C1147.83,163.563 1139.67,160.483 1128.09,157.699C1116.51,154.919 1107.72,152.364 1101.7,150.031C1095.69,147.702 1090.35,144.657 1085.69,140.897C1076.37,133.832 1071.71,123.006 1071.71,108.421C1071.71,93.839 1077.01,82.598 1087.61,74.704C1098.21,66.81 1111.32,62.864 1126.96,62.864C1137.03,62.864 1147.04,64.52 1156.96,67.826C1166.88,71.135 1175.45,75.797 1182.67,81.809L1168.46,101.881C1163.8,97.673 1157.48,94.213 1149.52,91.507C1141.55,88.801 1133.69,87.448 1125.95,87.448Z" style="fill-rule:nonzero;"/>
        <path d="M1213.57,224.344L1213.57,66.699L1240.18,66.699L1240.18,135.034L1318.44,135.034L1318.44,66.699L1345.05,66.699L1345.05,224.344L1318.44,224.344L1318.44,159.843L1240.18,159.843L1240.18,224.344L1213.57,224.344Z" style="fill-rule:nonzero;"/>
        <path d="M1492.77,66.699L1492.77,91.733L1408.65,91.733L1408.65,133.456L1484.2,133.456L1484.2,157.137L1408.65,157.137L1408.65,199.311L1495.48,199.311L1495.48,224.345L1382.04,224.345L1382.04,66.699L1492.77,66.699Z" style="fill-rule:nonzero;"/>
        <path d="M1522.76,224.344L1522.76,66.699L1549.38,66.699L1549.38,199.084L1621.32,199.084L1621.32,224.343L1522.76,224.343L1522.76,224.344Z" style="fill-rule:nonzero;"/>
        <path d="M1670.26,91.507L1670.26,134.808L1740.17,134.808L1740.17,159.391L1670.26,159.391L1670.26,224.343L1643.65,224.343L1643.65,66.699L1748.74,66.699L1748.52,91.507L1670.26,91.507Z" style="fill-rule:nonzero;"/>
        <path d="M639.831,410.623C649,410.623 656.894,409.083 663.512,406C670.126,402.92 677.043,397.994 684.26,391.228L701.401,408.82C684.712,427.313 664.449,436.56 640.621,436.56C616.789,436.56 597.017,428.892 581.307,413.555C565.594,398.219 557.74,378.824 557.74,355.369C557.74,331.914 565.746,312.37 581.759,296.731C597.772,281.095 617.991,273.276 642.427,273.276C666.858,273.276 687.268,282.297 703.657,300.339L686.743,318.832C679.222,311.615 672.119,306.579 665.43,303.722C658.738,300.868 650.883,299.437 641.862,299.437C625.924,299.437 612.544,304.589 601.718,314.885C590.892,325.186 585.48,338.34 585.48,354.353C585.48,370.366 590.854,383.749 601.605,394.498C612.352,405.249 625.094,410.623 639.831,410.623Z" style="fill-rule:nonzero;"/>
        <path d="M852.954,328.306C852.954,354.319 841.6,370.705 818.899,377.471L860.17,434.755L826.341,434.755L788.677,381.756L753.72,381.756L753.72,434.755L727.108,434.755L727.108,277.11L785.746,277.11C809.801,277.11 827.018,281.17 837.392,289.289C847.766,297.408 852.954,310.414 852.954,328.306ZM817.546,350.633C822.959,345.974 825.665,338.493 825.665,328.193C825.665,317.896 822.881,310.828 817.32,306.994C811.756,303.16 801.833,301.243 787.55,301.243L753.72,301.243L753.72,357.625L786.873,357.625C801.907,357.624 812.133,355.295 817.546,350.633Z" style="fill-rule:nonzero;"/>
        <path d="M906.855,398.896L891.068,434.755L862.651,434.755L932.114,277.11L960.531,277.11L1029.99,434.755L1001.58,434.755L985.79,398.896L906.855,398.896ZM974.965,374.313L946.322,309.36L917.68,374.313L974.965,374.313Z" style="fill-rule:nonzero;"/>
        <path d="M1071.71,301.918L1071.71,345.22L1141.63,345.22L1141.63,369.803L1071.71,369.803L1071.71,434.755L1045.1,434.755L1045.1,277.11L1150.2,277.11L1149.97,301.918L1071.71,301.918Z" style="fill-rule:nonzero;"/>
        <path d="M1234.09,301.467L1234.09,434.755L1207.48,434.755L1207.48,301.467L1159.67,301.467L1159.67,277.11L1281.9,277.11L1281.9,301.466L1234.09,301.466L1234.09,301.467Z" style="fill-rule:nonzero;"/>
    </g>
</svg>
